<svg width="24" height="24" viewBox="0 0 24 24" fill="none" xmlns="http://www.w3.org/2000/svg">
<g opacity="0.4" clip-path="url(#clip0_0_4584)">
<mask id="mask0_0_4584" style="mask-type:luminance" maskUnits="userSpaceOnUse" x="0" y="0" width="24" height="24">
<rect width="24" height="24" fill="white"/>
</mask>
<g mask="url(#mask0_0_4584)">
<mask id="mask1_0_4584" style="mask-type:luminance" maskUnits="userSpaceOnUse" x="2" y="-2" width="22" height="29">
<rect x="2" y="-2" width="22" height="29" fill="white"/>
</mask>
<g mask="url(#mask1_0_4584)">
<path fill-rule="evenodd" clip-rule="evenodd" d="M18.625 8.625C18.625 5.51953 16.1055 3 13 3C9.89453 3 7.375 5.51953 7.375 8.625C7.375 11.7305 9.89453 14.25 13 14.25C16.1055 14.25 18.625 11.7305 18.625 8.625ZM15.8477 15.5C14.9805 15.8984 14.0156 16.125 13 16.125C11.9844 16.125 11.0234 15.8984 10.1523 15.5H8C5.23828 15.5 3 17.7383 3 20.5V21.125C3 22.1602 3.83984 23 4.875 23H21.125C22.1602 23 23 22.1602 23 21.125V20.5C23 17.7383 20.7617 15.5 18 15.5H15.8477Z" fill="#4F4F4F"/>
</g>
</g>
</g>
<defs>
<clipPath id="clip0_0_4584">
<rect width="24" height="24" fill="white"/>
</clipPath>
</defs>
</svg>
